
<svg width="30" height="37" viewBox="0 0 30 37" fill="none" xmlns="http://www.w3.org/2000/svg">
<path d="M15 18.75C16.0312 18.75 16.9144 18.3825 17.6494 17.6475C18.3831 16.9137 18.75 16.0312 18.75 15C18.75 13.9687 18.3831 13.0856 17.6494 12.3506C16.9144 11.6169 16.0312 11.25 15 11.25C13.9687 11.25 13.0862 11.6169 12.3525 12.3506C11.6175 13.0856 11.25 13.9687 11.25 15C11.25 16.0312 11.6175 16.9137 12.3525 17.6475C13.0862 18.3825 13.9687 18.75 15 18.75ZM15 36.7969C14.75 36.7969 14.5 36.75 14.25 36.6562C14 36.5625 13.7812 36.4375 13.5937 36.2812C9.03125 32.25 5.625 28.5081 3.375 25.0556C1.125 21.6019 0 18.375 0 15.375C0 10.6875 1.50813 6.95312 4.52437 4.17187C7.53937 1.39062 11.0312 0 15 0C18.9687 0 22.4606 1.39062 25.4756 4.17187C28.4919 6.95312 30 10.6875 30 15.375C30 18.375 28.875 21.6019 26.625 25.0556C24.375 28.5081 20.9687 32.25 16.4062 36.2812C16.2187 36.4375 16 36.5625 15.75 36.6562C15.5 36.75 15.25 36.7969 15 36.7969Z" fill="#141414"/>
<circle cx="15" cy="15" r="5" fill="#141414"/>
<path d="M11 10H13.51V22.55L11 25.06V10ZM16.02 22.55C17.4263 22.55 18.5551 21.4203 18.5551 20.04C18.5551 18.6597 17.4254 17.53 16.02 17.53V15.02C16.7227 15.02 17.275 14.4677 17.275 13.766C17.275 13.0633 16.7227 12.511 16.02 12.511V10C18.103 10 19.786 11.681 19.786 13.765C19.786 14.6181 19.5093 15.3959 19.0332 16.0234C20.238 16.9276 21.041 18.4081 21.041 20.039C21.041 22.8006 18.8076 25.059 16.021 25.059V22.55H16.02Z" fill="white"/>
</svg>