
<svg width="30" height="37" viewBox="0 0 30 37" fill="none" xmlns="http://www.w3.org/2000/svg">
<path d="M18.0032 11.9974L18.0026 11.9968C17.1746 11.1702 16.1648 10.75 15 10.75C13.8352 10.75 12.8258 11.1702 11.9989 11.9971C11.171 12.825 10.75 13.835 10.75 15C10.75 16.1651 11.171 17.1746 11.9992 18.0014C12.8259 18.8292 13.8352 19.25 15 19.25C16.165 19.25 17.175 18.829 18.0029 18.001C18.8298 17.1742 19.25 16.1648 19.25 15C19.25 13.8352 18.8298 12.8254 18.0032 11.9974ZM4.86332 4.53946L4.86339 4.53939C7.78947 1.84017 11.1615 0.5 15 0.5C18.8385 0.5 22.2105 1.84017 25.1366 4.53939L25.1367 4.53946C28.0352 7.21215 29.5 10.8052 29.5 15.375C29.5 18.2481 28.4223 21.3808 26.2061 24.7827C23.9902 28.1827 20.6212 31.8892 16.0809 35.9015C15.9415 36.0167 15.7743 36.1131 15.5744 36.1881C15.3767 36.2622 15.1861 36.2969 15 36.2969C14.8139 36.2969 14.6233 36.2622 14.4256 36.1881C14.2257 36.1131 14.0585 36.0166 13.919 35.9015C9.37877 31.8892 6.00977 28.1827 3.79394 24.7827C1.5777 21.3808 0.5 18.2481 0.5 15.375C0.5 10.8052 1.9648 7.21215 4.86332 4.53946Z" fill="white" stroke="black"/>
<circle cx="15" cy="15" r="5" fill="white"/>
<path d="M11 10H13.51V22.55L11 25.06V10ZM16.02 22.55C17.4263 22.55 18.5551 21.4203 18.5551 20.04C18.5551 18.6597 17.4254 17.53 16.02 17.53V15.02C16.7227 15.02 17.275 14.4677 17.275 13.766C17.275 13.0633 16.7227 12.511 16.02 12.511V10C18.103 10 19.786 11.681 19.786 13.765C19.786 14.6181 19.5093 15.3959 19.0332 16.0234C20.238 16.9276 21.041 18.4081 21.041 20.039C21.041 22.8006 18.8076 25.059 16.021 25.059V22.55H16.02Z" fill="black"/>
</svg>
