<!-- <svg width="25" height="25" viewBox="0 0 25 25" fill="none" xmlns="http://www.w3.org/2000/svg">
<rect width="25" height="25" fill="white"/>
<path d="M6 2H9.33333V18.6667L6 22V2ZM12.6667 18.6667C14.5343 18.6667 16.0333 17.1664 16.0333 15.3333C16.0333 13.5003 14.533 12 12.6667 12V8.66667C13.5998 8.66667 14.3333 7.93318 14.3333 7.00128C14.3333 6.0681 13.5998 5.33461 12.6667 5.33461V2C15.4329 2 17.6679 4.23246 17.6679 7C17.6679 8.13287 17.3006 9.1659 16.6682 9.99923C18.2683 11.1999 19.3346 13.1662 19.3346 15.3321C19.3346 18.9995 16.3687 21.9987 12.6679 21.9987V18.6667H12.6667Z" fill="black"/>
</svg> -->

<svg width="25" height="25" viewBox="0 0 25 25" fill="none" xmlns="http://www.w3.org/2000/svg">
<rect width="25" height="25" fill="black"/>
<path d="M6 2H9.33333V18.6667L6 22V2ZM12.6667 18.6667C14.5343 18.6667 16.0333 17.1664 16.0333 15.3333C16.0333 13.5003 14.533 12 12.6667 12V8.66667C13.5998 8.66667 14.3333 7.93318 14.3333 7.00128C14.3333 6.0681 13.5998 5.33461 12.6667 5.33461V2C15.4329 2 17.6679 4.23246 17.6679 7C17.6679 8.13287 17.3006 9.1659 16.6682 9.99923C18.2683 11.1999 19.3346 13.1662 19.3346 15.3321C19.3346 18.9995 16.3687 21.9987 12.6679 21.9987V18.6667H12.6667Z" fill="white"/>
</svg>