<svg xmlns="http://www.w3.org/2000/svg" width="37" height="52.417" viewBox="0 0 37 52.417">
  <g id="map-pin-act" transform="translate(-677 -730.5)">
    <path id="Icon_awesome-map-marker" data-name="Icon awesome-map-marker" d="M16.6,51.359C2.6,29.795,0,27.581,0,19.656,0,8.8,8.283,0,18.5,0S37,8.8,37,19.656c0,7.925-2.6,10.138-16.6,31.7a2.238,2.238,0,0,1-3.8,0Z" transform="translate(677 730.5)"/>
    <g id="Group_2444" data-name="Group 2444" transform="translate(683.207 736.153)">
      <circle id="Ellipse_13" data-name="Ellipse 13" cx="12.333" cy="12.333" r="12.333" fill="#fff"/>
      <path id="Path_584" data-name="Path 584" d="M2.83,2.83H5.981V18.583L2.83,21.733Zm6.3,15.753a3.151,3.151,0,1,0,0-6.3V9.131a1.575,1.575,0,1,0,0-3.149V2.83a4.72,4.72,0,0,1,4.727,4.726,4.655,4.655,0,0,1-.945,2.835A6.3,6.3,0,0,1,9.132,21.732V18.583Z" transform="translate(4.022 -0.089)"/>
    </g>
  </g>
</svg>

