<svg xmlns="http://www.w3.org/2000/svg" width="39.375" height="63" viewBox="0 0 39.375 63">
  <g id="user-icn" transform="translate(-1114.313 -814.125)">
    <path id="map_1_" data-name="map (1)" d="M22.688,0A19.5,19.5,0,0,0,3,19.688C3,30.712,18.75,63,22.688,63S42.375,30.712,42.375,19.688A19.5,19.5,0,0,0,22.688,0Zm0,31.5A11.6,11.6,0,0,1,10.875,19.688,11.6,11.6,0,0,1,22.688,7.875,11.6,11.6,0,0,1,34.5,19.688,11.6,11.6,0,0,1,22.688,31.5Z" transform="translate(1111.313 814.125)"/>
    <path id="Icon_awesome-user-alt" data-name="Icon awesome-user-alt" d="M8.146,9.164A4.582,4.582,0,1,0,3.564,4.582,4.583,4.583,0,0,0,8.146,9.164Zm4.073,1.018H10.466a5.539,5.539,0,0,1-4.639,0H4.073A4.073,4.073,0,0,0,0,14.255v.509a1.528,1.528,0,0,0,1.527,1.527H14.764a1.528,1.528,0,0,0,1.527-1.527v-.509A4.073,4.073,0,0,0,12.219,10.182Z" transform="translate(1126 826)" fill="#484848"/>
  </g>
</svg>
